<svg width="50" height="50" viewBox="0 0 50 50" fill="none" xmlns="http://www.w3.org/2000/svg">
<path d="M41.4062 21.875V40.625C41.4062 41.2466 41.1593 41.8427 40.7198 42.2823C40.2802 42.7218 39.6841 42.9688 39.0625 42.9688H10.9375C10.3159 42.9688 9.71976 42.7218 9.28022 42.2823C8.84068 41.8427 8.59375 41.2466 8.59375 40.625V21.875C8.59375 21.2534 8.84068 20.6573 9.28022 20.2177C9.71976 19.7782 10.3159 19.5313 10.9375 19.5313H15.625C15.8322 19.5313 16.0309 19.6136 16.1774 19.7601C16.3239 19.9066 16.4062 20.1053 16.4062 20.3125C16.4062 20.5197 16.3239 20.7184 16.1774 20.8649C16.0309 21.0114 15.8322 21.0938 15.625 21.0938H10.9375C10.7303 21.0938 10.5316 21.1761 10.3851 21.3226C10.2386 21.4691 10.1562 21.6678 10.1562 21.875V40.625C10.1562 40.8322 10.2386 41.0309 10.3851 41.1774C10.5316 41.3239 10.7303 41.4063 10.9375 41.4063H39.0625C39.2697 41.4063 39.4684 41.3239 39.6149 41.1774C39.7614 41.0309 39.8438 40.8322 39.8438 40.625V21.875C39.8438 21.6678 39.7614 21.4691 39.6149 21.3226C39.4684 21.1761 39.2697 21.0938 39.0625 21.0938H34.375C34.1678 21.0938 33.9691 21.0114 33.8226 20.8649C33.6761 20.7184 33.5938 20.5197 33.5938 20.3125C33.5938 20.1053 33.6761 19.9066 33.8226 19.7601C33.9691 19.6136 34.1678 19.5313 34.375 19.5313H39.0625C39.6841 19.5313 40.2802 19.7782 40.7198 20.2177C41.1593 20.6573 41.4062 21.2534 41.4062 21.875ZM17.7402 13.0527L24.2188 6.57422V26.5625C24.2188 26.7697 24.3011 26.9684 24.4476 27.1149C24.5941 27.2614 24.7928 27.3438 25 27.3438C25.2072 27.3438 25.4059 27.2614 25.5524 27.1149C25.6989 26.9684 25.7812 26.7697 25.7812 26.5625V6.57422L32.2598 13.0527C32.3324 13.1253 32.4185 13.1829 32.5134 13.2222C32.6082 13.2615 32.7098 13.2817 32.8125 13.2817C32.9152 13.2817 33.0168 13.2615 33.1116 13.2222C33.2065 13.1829 33.2926 13.1253 33.3652 13.0527C33.4378 12.9802 33.4954 12.894 33.5347 12.7991C33.574 12.7043 33.5942 12.6027 33.5942 12.5C33.5942 12.3974 33.574 12.2957 33.5347 12.2009C33.4954 12.106 33.4378 12.0199 33.3652 11.9473L25.5527 4.13477C25.4802 4.06213 25.394 4.00451 25.2992 3.96519C25.2043 3.92588 25.1027 3.90564 25 3.90564C24.8973 3.90564 24.7957 3.92588 24.7008 3.96519C24.606 4.00451 24.5198 4.06213 24.4473 4.13477L16.6348 11.9473C16.5622 12.0199 16.5046 12.106 16.4653 12.2009C16.426 12.2957 16.4058 12.3974 16.4058 12.5C16.4058 12.6027 16.426 12.7043 16.4653 12.7991C16.5046 12.894 16.5622 12.9802 16.6348 13.0527C16.7814 13.1993 16.9802 13.2817 17.1875 13.2817C17.2902 13.2817 17.3918 13.2615 17.4866 13.2222C17.5815 13.1829 17.6676 13.1253 17.7402 13.0527Z" fill="white"/>
</svg>
