<svg width="37" height="39" viewBox="0 0 37 39" fill="none" xmlns="http://www.w3.org/2000/svg">
<path d="M32.375 22.75C31.9661 22.75 31.574 22.9212 31.2849 23.226C30.9958 23.5307 30.8333 23.944 30.8333 24.375V30.875C30.8333 31.306 30.6709 31.7193 30.3818 32.024C30.0927 32.3288 29.7006 32.5 29.2917 32.5H7.70834C7.29947 32.5 6.90734 32.3288 6.61822 32.024C6.3291 31.7193 6.16668 31.306 6.16668 30.875V24.375C6.16668 23.944 6.00425 23.5307 5.71513 23.226C5.42601 22.9212 5.03389 22.75 4.62501 22.75C4.21613 22.75 3.82401 22.9212 3.53489 23.226C3.24577 23.5307 3.08334 23.944 3.08334 24.375V30.875C3.08334 32.1679 3.57062 33.4079 4.43797 34.3221C5.30533 35.2364 6.48172 35.75 7.70834 35.75H29.2917C30.5183 35.75 31.6947 35.2364 32.562 34.3221C33.4294 33.4079 33.9167 32.1679 33.9167 30.875V24.375C33.9167 23.944 33.7543 23.5307 33.4651 23.226C33.176 22.9212 32.7839 22.75 32.375 22.75ZM17.4054 25.5287C17.552 25.6767 17.7249 25.7927 17.9142 25.87C18.0987 25.956 18.2983 26.0004 18.5 26.0004C18.7018 26.0004 18.9013 25.956 19.0858 25.87C19.2751 25.7927 19.448 25.6767 19.5946 25.5287L25.7613 19.0288C26.0516 18.7228 26.2147 18.3077 26.2147 17.875C26.2147 17.4423 26.0516 17.0272 25.7613 16.7212C25.471 16.4153 25.0772 16.2434 24.6667 16.2434C24.2561 16.2434 23.8624 16.4153 23.5721 16.7212L20.0417 20.4587V4.875C20.0417 4.44402 19.8793 4.0307 19.5901 3.72595C19.301 3.4212 18.9089 3.25 18.5 3.25C18.0911 3.25 17.699 3.4212 17.4099 3.72595C17.1208 4.0307 16.9583 4.44402 16.9583 4.875V20.4587L13.4279 16.7212C13.2842 16.5697 13.1135 16.4496 12.9257 16.3676C12.7379 16.2856 12.5366 16.2434 12.3333 16.2434C12.1301 16.2434 11.9288 16.2856 11.741 16.3676C11.5532 16.4496 11.3825 16.5697 11.2388 16.7212C11.095 16.8728 10.981 17.0526 10.9032 17.2506C10.8254 17.4486 10.7854 17.6607 10.7854 17.875C10.7854 18.0893 10.8254 18.3014 10.9032 18.4994C10.981 18.6974 11.095 18.8772 11.2388 19.0288L17.4054 25.5287Z" fill="white"/>
</svg>
