<svg xmlns="http://www.w3.org/2000/svg" version="1.1" xmlnsXlink="http://www.w3.org/1999/xlink"
    xmlnsSvgjs="http://svgjs.dev/svgjs" width="1000" height="1125" viewBox="0 0 1000 1125">
    <g transform="matrix(1,0,0,1,0,0)"><svg viewBox="0 0 320 360" data-background-color="#010c80"
            preserveAspectRatio="xMidYMid meet" height="1125" width="1000" xmlns="http://www.w3.org/2000/svg"
            xmlnsXlink="http://www.w3.org/1999/xlink">
            <g id="tight-bounds" transform="matrix(1,0,0,1,0,0)"><svg viewBox="0 0 320 360" height="360" width="320">
                    <g><svg></svg></g>
                    <g><svg viewBox="0 0 320 360" height="360" width="320">
                            <g>
                                <path xmlns="http://www.w3.org/2000/svg"
                                    d="M219.58 41.008c0.707 0 6.365 2.829 9.547 3.89-1.061 0.354-3.536-0.707-6.365-1.768 0.707 0 2.122 0.354 3.536 1.06-0.707-0.707-6.011-2.475-6.718-3.182M166.895 30.047c1.061-0.354 13.436 1.414 19.094 1.768 0.354-0.354-0.707-0.354-2.122-0.707 1.768-0.354 5.304 0.707 7.779 1.06-7.425 0.354-15.558-1.768-22.629-1.06-2.475 0-0.707-0.707-2.122-1.061M156.641 30.047c6.365 0 11.315 0 2.121 0.707-1.061-0.354-2.475-0.354-2.121-0.707M256.707 59.395c0.707 0 3.536 3.182 4.95 4.243-0.354 0.354-3.182-2.475-4.596-3.536 0.354 0.354 0 0-0.354-0.707M249.635 54.798c-2.829-2.475-3.889-2.475-4.243-3.889 2.475 1.414 4.243 2.829 4.243 3.889M204.022 32.522c0.354-0.354 1.061 0.354 2.829 0.707-2.122-0.354-1.768 0-1.061 0.707-2.475-0.354-3.182-0.707-2.475-1.414 1.414 0.707 1.768 0.354 0.707 0M103.602 36.765c0-0.354 1.414-1.061 2.475-1.414-1.061 0.707-0.707 1.061 1.061 0.353 0 0.354-2.122 1.061-3.536 1.768 0.707-0.354 1.414-1.414 0-0.707M211.094 28.986c-1.061 0.354-4.95-1.768-8.84-2.475-2.122-0.707 8.486 1.768 8.84 2.475M2.475 203.66c2.122 8.84 0.707 8.486 0 0M2.829 150.621c0.354-1.414 0.707-5.304 1.06-4.95-1.061 8.486-2.829 12.376-3.182 18.74 1.061-5.657-0.354 3.182-0.707 5.304 0.354 2.829 0.354-1.768 1.061-1.06 0.707 1.061-1.414 15.912-0.707 7.779-0.707 7.425 0 15.558 1.414 17.679-1.768 11.315 7.072 36.773 8.84 42.077 0.354 0.354 0-1.768 0.707-0.353 0.707 4.597 3.889 7.779 4.95 12.729 1.061 1.414 5.304 9.193 6.011 10.962 1.414 2.829 2.122 2.475 3.536 5.303 4.243 8.133 10.961 15.912 17.326 23.337 20.508 24.044 51.978 43.845 86.984 50.918 35.006 7.425 71.779 2.122 100.419-11.669 1.768-1.061 1.414-1.414 3.536-2.122 9.901-3.182 21.923-13.436 28.641-17.326 3.182-3.536 11.669-9.547 12.73-13.082 6.011-4.95 12.022-13.083 15.204-18.387 1.768-2.829 3.182-2.829 3.889-4.597-0.354 0 5.657-7.425 7.426-11.668-0.707 0-1.768 2.122-1.768 0 12.729-24.398 19.801-57.282 15.911-79.912 0.707 27.934-6.365 59.05-19.801 78.851-6.011 12.729-18.387 26.519-29.701 36.42-1.768 1.768-3.536 3.889-5.658 5.304-6.718 5.657-14.144 10.254-21.922 14.497-18.387 10.254-38.895 19.094-62.94 19.447 41.37-3.536 78.497-24.398 99.006-49.856-15.558 15.204-22.276 21.215-39.602 30.055-1.414 2.475-13.083 7.425-20.862 9.547 4.597-2.122 14.144-5.657 17.326-8.486-25.812 12.376-54.453 19.448-81.326 15.558 10.254 0 24.751 0.354 38.541-2.121 2.122-0.707 3.182-1.414 5.658-1.768 26.873-6.011 52.685-19.094 71.072-37.481-10.608 9.547-26.519 20.862-36.774 24.398 9.547-5.304 26.873-15.558 32.53-23.337-11.315 11.315-32.53 22.63-45.966 27.58-2.122 0.354 1.414-1.414-2.122 0-4.243 1.061-2.475 1.061-3.536 1.768-16.265 4.597-35.006 8.486-50.563 7.072-2.829-0.354-3.889-1.061-6.365-1.061-2.829-0.354-5.304-0.354-8.486-0.354-12.376-1.414-25.812-6.365-35.713-10.607-5.304-2.475-10.608-4.243-15.912-7.426-4.243-2.475-7.779-5.304-11.314-8.132-13.436-9.901-24.751-19.801-35.36-33.945-19.094-26.519-28.994-59.757-27.58-92.641 1.414-32.884 14.497-65.061 35.359-88.752-1.061 1.061 1.414-2.475 3.536-4.596 0 0.707-0.354 1.768 2.122-0.707 2.122-2.475-0.707-0.707 0.353-2.122 21.923-24.044 60.111-43.492 99.36-44.199 1.414-1.061 3.889-2.475 6.718-1.768 0 0.354-1.768 0.354-1.768 0.354 3.889-0.354 7.425-0.354 9.193 0.353 0.354-0.354-1.414-0.707 0-0.707 2.475 0.707 3.182 0 4.597 0.707-1.061 0-2.122 0-2.829 0.354 8.84 0 14.497 2.122 23.337 2.829-4.597-1.061-5.657-1.061-9.193-2.122 3.889 0.707 5.657 1.414 7.425 1.061-0.707 0-0.354-1.061 0.354-0.707 7.072 1.768 7.779 2.475 15.204 4.95 0.707-0.707-3.182-1.061-4.243-2.122 7.072 2.475 13.436 4.243 17.68 7.072-1.414-1.061-5.657-2.475-8.84-3.889-0.354 0.354 1.061 0.707 1.414 1.414-3.536-1.768-8.486-3.536-13.436-4.243 4.243 1.061 7.072 2.475 8.84 3.182-3.889-0.707-8.84-3.182-14.498-4.243 9.193 2.829 26.519 9.193 37.127 14.851-3.889-2.475-8.486-4.243-10.961-5.657 2.122 0.354 4.597 1.768 4.597 1.06 2.475 1.061 5.657 3.536 7.425 3.89-3.182-2.122-9.547-5.304-11.668-6.365 26.519 12.022 50.21 32.177 65.414 57.989 1.414 2.475 3.536 8.133 5.304 8.84-0.354-1.768-1.768-2.829-3.182-5.657 0.707 0 0.707-1.061 0-2.122-1.414-1.768 0 1.414-1.415-0.354-6.365-11.669-14.144-21.923-26.165-33.237 6.718 6.365 1.768 1.768 0.353-0.354 9.193 8.133 19.801 21.923 24.398 28.995-0.707-1.061-1.061-1.768-0.707-1.768 8.486 14.497 13.79 27.58 19.094 46.32 0.354 0.354 0-1.414 0.707-0.353 3.536 14.851 4.597 27.227 4.243 38.541 2.829-19.094-3.536-48.796-14.851-72.133-1.414-2.829-1.414-0.707-2.829-3.889 0-1.061-1.061-3.182-1.768-4.597-14.144-23.337-31.47-39.956-51.978-53.038 1.414 0.707 4.243 2.829 4.244 2.475-38.188-25.105-82.387-28.641-118.807-20.862-2.475 1.061-3.536 2.122-6.365 3.536 5.304-1.768 8.486-2.122 13.437-3.183 1.061-1.061-4.597 0.354-2.122-0.707 0.354 0.354 4.95-0.707 6.011-0.353 0 0.354-1.414 0.707-1.768 1.06 11.669-2.475 23.691-2.829 33.945-2.121-6.011 0.354-16.972-0.707-20.508 1.061 3.536-0.354 8.486-0.707 11.668-0.354-4.243 0-12.022 0.354-15.558 0.707-0.354-0.354 5.657-1.061 1.768-1.06-1.768 0.354-4.597 0.354-5.657 1.414-30.409 2.829-60.111 18.74-80.973 37.481-4.243 3.536-9.193 7.425-12.375 11.314-7.779 8.84-12.729 17.68-18.387 25.459 3.536-7.425 11.315-18.74 20.508-28.287 9.193-9.547 19.094-17.68 24.398-21.923 0 1.414 8.486-5.304 11.669-7.425-2.122 1.768 1.414-0.707 2.121-0.354 11.315-6.718 20.508-9.193 30.763-13.083-2.475 0.707-4.597 1.414-4.951 1.061 2.475-0.707 3.889-1.414 3.536-1.768-9.901 2.829-25.459 9.547-37.834 16.972 22.276-15.204 50.564-24.398 78.497-24.751 27.934-0.707 55.16 6.365 76.729 17.68 14.497 6.365 28.287 18.033 39.249 29.348 3.182 2.829 0.707-0.707 5.304 4.243-1.414-0.707-2.475-1.414-0.707 0.707 2.829 3.182-0.707-2.475 3.889 3.182-0.354 0-1.768-1.768-1.768-1.061 12.376 10.961 21.923 30.762 27.58 43.846-1.414-5.304-4.95-12.729-7.779-18.033 8.486 15.558 11.315 24.751 14.851 38.541 1.414 1.061-0.707-4.95 0.707-2.121 0.354 2.122 0.707 8.84 2.122 9.9-1.061-6.718-2.829-14.851-4.243-16.265 1.061 0.707-1.768-8.133-3.536-10.254-0.707-5.657-5.657-15.558-9.901-22.984-15.204-29.702-42.431-54.099-72.839-67.536 0-0.707-1.768-1.414-2.476-2.121-30.055-12.729-66.122-16.265-100.773-8.133-35.006 8.486-67.889 28.641-91.227 57.636 1.061-3.536 9.901-10.254 10.255-13.083-10.254 10.961-21.215 25.459-28.641 41.016-7.779 15.558-12.022 31.47-13.79 43.138"
                                    fill="#f8fafc" fill-rule="nonzero" stroke="none" stroke-width="1"
                                    stroke-linecap="butt" stroke-linejoin="miter" stroke-miterlimit="10"
                                    stroke-dasharray="" stroke-dashoffset="0" font-family="none" font-weight="none"
                                    font-size="none" text-anchor="none" style="mix-blend-mode: normal"
                                    data-fill-palette-color="tertiary"></path>
                            </g>
                            <g transform="matrix(1,0,0,1,48,157.55184207954656)"><svg
                                    viewBox="0 0 224 44.89631584090687" height="44.89631584090687" width="224">
                                    <g><svg viewBox="0 0 224 44.89631584090687" height="44.89631584090687" width="224">
                                            <g><svg viewBox="0 0 224 44.89631584090687" height="44.89631584090687"
                                                    width="224">
                                                    <g><svg viewBox="0 0 224 44.89631584090687"
                                                            height="44.89631584090687" width="224">
                                                            <g id="textblocktransform"><svg
                                                                    viewBox="0 0 224 44.89631584090687"
                                                                    height="44.89631584090687" width="224"
                                                                    id="textblock">
                                                                    <g><svg viewBox="0 0 224 44.89631584090687"
                                                                            height="44.89631584090687" width="224">
                                                                            <g transform="matrix(1,0,0,1,0,0)"><svg
                                                                                    width="224"
                                                                                    viewBox="1.9800000190734863 -37.959999084472656 249.80999755859375 50.06999969482422"
                                                                                    height="44.89631584090687"
                                                                                    data-palette-color="#f8fafc">
                                                                                    <path
                                                                                        d="M26-32.15L26-32.15Q26-33.03 26.16-33.36 26.32-33.69 26.81-33.81L26.81-33.81 35.21-35.84Q35.52-35.94 35.86-35.94L35.86-35.94Q36.21-35.94 36.33-35.73 36.45-35.52 36.45-34.89L36.45-34.89 36.16-31.05Q36.04-29.37 35.89-27.71 35.74-26.05 35.45-24.8L35.45-24.8 35.01-21.34Q34.81-19.8 34.64-18.01 34.47-16.21 34.28-13.99L34.28-13.99 33.13-1.95Q33.11-1.73 33.03-1.51 32.96-1.29 32.71-1.2L32.71-1.2Q32.54-1.12 31.92-0.88 31.3-0.63 30.44-0.32 29.59 0 28.61 0.35 27.64 0.71 26.76 1 25.88 1.29 25.2 1.49 24.51 1.68 24.27 1.68L24.27 1.68Q23.93 1.68 23.67 1.5 23.41 1.32 23.41 0.81L23.41 0.81Q23.41-2.15 23.75-5.24 24.1-8.33 24.37-11.38L24.37-11.38Q24.41-11.72 24.4-12.01 24.39-12.3 24.44-12.65L24.44-12.65 15.5-12.65 14.5-1.95Q14.48-1.73 14.42-1.53 14.36-1.32 14.09-1.2L14.09-1.2Q13.99-1.15 13.12-0.84 12.26-0.54 11.12-0.13 9.99 0.27 8.87 0.67 7.76 1.07 7.18 1.29L7.18 1.29Q6.88 1.42 6.46 1.55 6.03 1.68 5.62 1.68L5.62 1.68Q5.27 1.68 5.02 1.49 4.76 1.29 4.76 0.78L4.76 0.78Q4.76-0.39 4.85-1.89 4.93-3.39 5.05-5.04 5.18-6.69 5.35-8.42 5.52-10.16 5.69-11.84L5.69-11.84 5.74-12.55Q3.76-12.55 2.87-12.66 1.98-12.77 1.98-13.23L1.98-13.23Q1.98-13.55 2.34-14.06L2.34-14.06Q2.83-14.75 3.48-15.71 4.13-16.67 4.72-17.61 5.32-18.55 5.8-19.3 6.27-20.04 6.42-20.26L6.42-20.26 6.98-26.15Q6.98-26.2 7.03-26.88 7.08-27.56 7.15-28.5 7.23-29.44 7.31-30.44 7.4-31.45 7.47-32.15L7.47-32.15Q7.52-33.01 7.6-33.35 7.69-33.69 8.18-33.81L8.18-33.81 16.48-35.84Q16.8-35.94 17.14-35.94L17.14-35.94Q17.48-35.94 17.6-35.73 17.72-35.52 17.72-34.89L17.72-34.89Q17.55-33.13 17.46-31.69 17.36-30.25 17.25-29 17.14-27.76 17.02-26.64 16.89-25.51 16.67-24.34L16.67-24.34 16.19-20.56 25.05-20.65Q25.27-23.9 25.54-26.17 25.81-28.44 25.88-29.76L25.88-29.76Q25.95-31.01 25.98-31.54 26-32.08 26-32.15ZM54.39-0.95L49.02 11.13Q48.97 11.23 48.91 11.29 48.85 11.35 48.7 11.35L48.7 11.35Q48.56 11.35 48.48 11.33L48.48 11.33Q47.6 11.01 46.82 10.79 46.04 10.57 45.27 10.39 44.5 10.21 43.7 10.05 42.89 9.89 41.99 9.69L41.99 9.69Q41.75 9.64 41.61 9.53 41.48 9.42 41.48 9.16L41.48 9.16Q41.48 9.08 41.56 8.8 41.65 8.52 41.99 7.65 42.33 6.79 43.04 5.14 43.75 3.49 44.99 0.71L44.99 0.71Q44.63-0.51 44.16-2.22 43.7-3.93 43.17-5.96 42.65-7.98 42.09-10.24 41.53-12.5 40.95-14.81 40.38-17.11 39.8-19.37 39.23-21.63 38.69-23.68L38.69-23.68Q38.52-24.07 38.5-24.33 38.47-24.58 38.47-24.76L38.47-24.76Q38.47-25.1 38.86-25.2L38.86-25.2Q40.77-25.61 42.82-26.06 44.87-26.51 46.7-27.22L46.7-27.22Q46.77-27.25 46.92-27.25L46.92-27.25Q47.24-27.25 47.26-27L47.26-27 50.24-10.6Q50.34-10.89 50.62-11.66 50.9-12.43 51.28-13.5 51.66-14.58 52.12-15.87 52.59-17.16 53.07-18.51 53.56-19.85 54.04-21.18 54.51-22.51 54.93-23.66 55.34-24.8 55.65-25.68 55.95-26.56 56.13-27L56.13-27Q56.22-27.25 56.49-27.25L56.49-27.25Q56.56-27.25 56.59-27.23 56.61-27.22 56.69-27.22L56.69-27.22Q58.52-26.51 60.45-26.06 62.38-25.61 64.28-25.2L64.28-25.2Q64.74-25.1 64.74-24.66L64.74-24.66Q64.74-24.34 64.45-23.68L64.45-23.68 54.39-0.95ZM83.61-8.33L84.13-13.89Q84.2-14.67 84.28-15.53 84.37-16.38 84.49-17.31L84.49-17.31Q83.93-18.77 82.91-19.69 81.88-20.61 80.34-20.61L80.34-20.61Q78.83-20.61 77.78-19.74 76.73-18.87 76.09-17.6 75.46-16.33 75.18-14.93 74.9-13.53 74.9-12.45L74.9-12.45Q74.9-11.13 75.06-9.84 75.21-8.54 75.57-7.5 75.92-6.45 76.51-5.8 77.09-5.15 77.97-5.15L77.97-5.15Q80.12-5.22 81.46-6.13 82.81-7.03 83.61-8.33L83.61-8.33ZM95.8-36.84L92.65-2.47Q92.65-2.42 92.63-2.36 92.62-2.29 92.62-2.25L92.62-2.25Q92.62-2.12 92.63-2.05 92.65-1.98 92.65-1.9L92.65-1.9Q92.65-1.68 92.49-1.55 92.33-1.42 91.67-1.25L91.67-1.25 85.13 0.88Q84.86 0.98 84.42 1.12 83.98 1.27 83.56 1.27L83.56 1.27Q83.22 1.27 82.97 1.1 82.71 0.93 82.71 0.46L82.71 0.46Q82.71 0.02 82.72-0.24 82.73-0.51 82.75-0.74 82.76-0.98 82.8-1.25 82.83-1.51 82.88-1.95L82.88-1.95Q81.05-0.49 79.11 0.39 77.17 1.27 75.02 1.27L75.02 1.27Q72.68 1.27 70.86 0.16 69.04-0.95 67.79-2.82 66.55-4.69 65.9-7.09 65.25-9.5 65.25-12.11L65.25-12.11Q65.25-15.5 66.36-18.3 67.48-21.09 69.38-23.08 71.28-25.07 73.82-26.16 76.36-27.25 79.22-27.25L79.22-27.25Q80.76-27.25 82.16-26.44 83.56-25.63 84.81-24.37L84.81-24.37Q84.88-25.56 84.98-26.97 85.08-28.37 85.18-29.82 85.27-31.27 85.37-32.69 85.47-34.11 85.54-35.28L85.54-35.28Q85.54-35.5 85.7-35.63 85.86-35.77 86.52-35.94L86.52-35.94 93.38-37.57Q93.65-37.62 94.09-37.79 94.53-37.96 94.94-37.96L94.94-37.96Q95.26-37.96 95.54-37.82 95.82-37.67 95.82-37.26L95.82-37.26Q95.82-37.21 95.81-37.05 95.8-36.89 95.8-36.84L95.8-36.84ZM119.57-27.44L118.06-19.87Q117.55-19.92 116.91-19.98 116.28-20.04 115.57-20.04L115.57-20.04Q114.49-20.04 113.38-19.86 112.27-19.68 111.32-19.14 110.37-18.6 109.68-17.66 109-16.72 108.81-15.23L108.81-15.23Q108.64-13.43 108.53-12.27 108.42-11.11 108.37-10.36 108.32-9.62 108.28-9.17 108.24-8.72 108.22-8.33L108.22-8.33Q108.22-8.23 108.18-7.79 108.15-7.35 108.07-6.76 108-6.18 107.94-5.49 107.88-4.81 107.81-4.22 107.73-3.64 107.7-3.2 107.66-2.76 107.66-2.66L107.66-2.66Q107.66-2.47 107.67-2.33 107.68-2.2 107.68-2.08L107.68-2.08Q107.68-1.88 107.5-1.75 107.32-1.61 106.68-1.44L106.68-1.44 100.21 0.88Q99.94 0.98 99.5 1.12 99.06 1.27 98.65 1.27L98.65 1.27Q98.31 1.27 98.05 1.1 97.8 0.93 97.8 0.51L97.8 0.51 99.89-23.68Q99.97-24.49 100.08-24.79 100.19-25.1 100.63-25.2L100.63-25.2Q102.85-25.63 105.22-26.09 107.59-26.54 109.81-27.25L109.81-27.25Q110-27.25 110.04-27.19 110.08-27.12 110.08-27L110.08-27Q110.08-26.95 110.06-26.86 110.05-26.76 109.99-26.42 109.93-26.07 109.82-25.38 109.71-24.68 109.51-23.44L109.51-23.44Q110.64-24.32 111.99-25.05 113.35-25.78 114.71-26.31 116.08-26.83 117.35-27.14 118.62-27.44 119.57-27.44L119.57-27.44ZM132.97 1.27L132.97 1.27Q129.53 1.27 126.93 0.15 124.33-0.98 122.57-2.84 120.82-4.71 119.94-7.14 119.06-9.57 119.06-12.18L119.06-12.18Q119.06-14.79 119.91-17.15 120.77-19.51 122.3-21.37 123.84-23.24 125.99-24.5 128.14-25.76 130.73-26.2L130.73-26.2Q131.12-26.22 131.12-26.37L131.12-26.37Q131.12-26.64 131.06-26.87 131-27.1 131-27.27L131-27.27Q131-27.54 131.09-27.64 131.19-27.73 131.31-27.73L131.31-27.73Q135.98-27.73 139.25-26.67 142.52-25.61 144.57-23.78 146.62-21.95 147.55-19.46 148.48-16.97 148.48-14.11L148.48-14.11Q148.48-10.47 147.26-7.62 146.03-4.76 143.92-2.78 141.81-0.81 138.99 0.23 136.17 1.27 132.97 1.27ZM128.46-12.45L128.46-12.45Q128.46-11.13 128.74-9.84 129.02-8.54 129.67-7.5 130.31-6.45 131.36-5.8 132.41-5.15 133.97-5.15L133.97-5.15Q135.1-5.2 135.94-5.65 136.78-6.1 137.39-6.82 138-7.54 138.41-8.45 138.81-9.35 139.04-10.31 139.27-11.28 139.37-12.21 139.47-13.13 139.47-13.89L139.47-13.89Q139.47-15.16 139.09-16.38 138.71-17.6 137.98-18.53 137.25-19.46 136.16-20.03 135.07-20.61 133.66-20.61L133.66-20.61Q132.19-20.61 131.19-19.74 130.19-18.87 129.59-17.6 128.99-16.33 128.73-14.93 128.46-13.53 128.46-12.45ZM162.59-17.41L162.51-17.04Q162.37-14.7 162.26-13.23 162.15-11.77 162.07-10.85 162-9.94 161.95-9.41 161.9-8.89 161.88-8.42L161.88-8.42Q162.44-6.96 163.54-6.04 164.64-5.13 166.17-5.13L166.17-5.13Q167.52-5.13 168.53-5.97 169.54-6.81 170.21-8.15 170.89-9.5 171.23-11.16 171.57-12.82 171.57-14.45L171.57-14.45Q171.57-15.8 171.34-16.94 171.11-18.09 170.64-18.93 170.18-19.78 169.48-20.25 168.79-20.73 167.83-20.73L167.83-20.73Q167.05-20.73 166.28-20.42 165.51-20.12 164.81-19.64 164.1-19.17 163.53-18.57 162.95-17.97 162.59-17.41L162.59-17.41ZM163-24.19L163-24.19Q165.05-25.59 167.3-26.42 169.54-27.25 171.98-27.25L171.98-27.25Q174.28-27.25 175.95-26.31 177.62-25.37 178.72-23.77 179.82-22.17 180.35-20.09 180.87-18.02 180.87-15.75L180.87-15.75Q180.87-13.77 180.48-11.74 180.09-9.72 179.33-7.82 178.58-5.93 177.45-4.27 176.33-2.61 174.88-1.38 173.43-0.15 171.64 0.56 169.86 1.27 167.79 1.27L167.79 1.27Q165.95 1.27 164.28 0.54 162.61-0.2 161.14-1.37L161.14-1.37Q161.14-1.25 161.08-0.48 161.02 0.29 160.93 1.39 160.83 2.49 160.71 3.75 160.58 5 160.49 6.1 160.39 7.2 160.33 7.97 160.27 8.74 160.27 8.86L160.27 8.86Q160.27 9.06 160.28 9.19 160.29 9.33 160.29 9.45L160.29 9.45Q160.29 9.64 160.11 9.78 159.92 9.91 159.29 10.08L159.29 10.08 152.87 11.72Q152.6 11.79 152.16 11.95 151.72 12.11 151.31 12.11L151.31 12.11Q150.96 12.11 150.71 11.94 150.45 11.77 150.45 11.3L150.45 11.3 153.43-24.44Q153.5-25.24 153.61-25.55 153.72-25.85 154.16-25.95L154.16-25.95Q156.38-26.39 158.73-26.84 161.07-27.29 163.29-28L163.29-28Q163.49-28 163.53-27.94 163.56-27.88 163.56-27.76L163.56-27.76Q163.56-27.71 163.55-27.61 163.54-27.51 163.48-27.17 163.42-26.83 163.31-26.14 163.2-25.44 163-24.19ZM185.63-20.65L185.63-20.65Q185.92-24 186.11-27.27 186.29-30.54 186.51-33.98L186.51-33.98Q186.56-34.79 186.67-35.1 186.78-35.4 187.22-35.5L187.22-35.5Q189.49-35.91 191.77-36.34 194.05-36.77 196.35-37.48L196.35-37.48Q196.42-37.5 196.57-37.5L196.57-37.5Q196.84-37.5 196.84-37.26L196.84-37.26 193.66-2.39 193.66-1.98Q193.66-1.76 193.49-1.62 193.32-1.49 192.69-1.32L192.69-1.32 186.29 1.03Q186.02 1.15 185.58 1.28 185.14 1.42 184.73 1.42L184.73 1.42Q184.38 1.42 184.13 1.25 183.87 1.07 183.87 0.66L183.87 0.66 183.87 0.51Q184.07-1.95 184.25-4.31 184.43-6.67 184.64-9.18 184.85-11.69 185.09-14.5 185.34-17.31 185.63-20.65ZM212.56 1.27L212.56 1.27Q209.11 1.27 206.51 0.15 203.91-0.98 202.16-2.84 200.4-4.71 199.52-7.14 198.64-9.57 198.64-12.18L198.64-12.18Q198.64-14.79 199.49-17.15 200.35-19.51 201.89-21.37 203.42-23.24 205.57-24.5 207.72-25.76 210.31-26.2L210.31-26.2Q210.7-26.22 210.7-26.37L210.7-26.37Q210.7-26.64 210.64-26.87 210.58-27.1 210.58-27.27L210.58-27.27Q210.58-27.54 210.68-27.64 210.77-27.73 210.9-27.73L210.9-27.73Q215.56-27.73 218.83-26.67 222.1-25.61 224.15-23.78 226.2-21.95 227.13-19.46 228.06-16.97 228.06-14.11L228.06-14.11Q228.06-10.47 226.84-7.62 225.62-4.76 223.51-2.78 221.39-0.81 218.57 0.23 215.75 1.27 212.56 1.27ZM208.04-12.45L208.04-12.45Q208.04-11.13 208.32-9.84 208.6-8.54 209.25-7.5 209.89-6.45 210.94-5.8 211.99-5.15 213.56-5.15L213.56-5.15Q214.68-5.2 215.52-5.65 216.36-6.1 216.97-6.82 217.59-7.54 217.99-8.45 218.39-9.35 218.62-10.31 218.85-11.28 218.95-12.21 219.05-13.13 219.05-13.89L219.05-13.89Q219.05-15.16 218.67-16.38 218.29-17.6 217.56-18.53 216.83-19.46 215.74-20.03 214.66-20.61 213.24-20.61L213.24-20.61Q211.77-20.61 210.77-19.74 209.77-18.87 209.17-17.6 208.58-16.33 208.31-14.93 208.04-13.53 208.04-12.45ZM248.69-18.82L244.15-18.82Q243.8-16.26 243.5-13.71 243.19-11.16 243.12-8.94L243.12-8.94Q243.12-7.98 243.27-7.35 243.41-6.71 243.69-6.35 243.97-5.98 244.36-5.82 244.76-5.66 245.24-5.66L245.24-5.66Q246.02-5.66 246.95-5.9 247.88-6.13 248.81-6.49L248.81-6.49Q249.1-6.62 249.31-6.68 249.52-6.74 249.66-6.74L249.66-6.74Q249.91-6.74 249.99-6.52 250.08-6.3 250.16-5.75 250.25-5.2 250.42-4.27 250.59-3.34 250.98-1.93L250.98-1.93Q251.01-1.81 251.02-1.72 251.03-1.64 251.03-1.56L251.03-1.56Q251.03-1.22 250.77-1.07 250.52-0.93 249.93-0.73L249.93-0.73Q248.93-0.39 247.82-0.04 246.71 0.32 245.62 0.61 244.54 0.9 243.53 1.09 242.53 1.27 241.78 1.27L241.78 1.27Q237.7 1.27 235.83-0.76 233.96-2.78 233.96-6.93L233.96-6.93Q233.96-7.64 234.01-8.39 234.06-9.13 234.14-9.94L234.14-9.94Q234.38-12.38 234.56-14.56 234.75-16.75 234.94-18.75L234.94-18.75 232.38-18.75Q231.06-18.75 230.47-18.86 229.89-18.97 229.89-19.31L229.89-19.31Q229.89-19.41 230.13-19.84 230.38-20.26 230.75-20.86 231.13-21.46 231.57-22.14 232.01-22.83 232.41-23.43 232.82-24.02 233.11-24.46 233.4-24.9 233.48-25L233.48-25 235.21-25Q235.43-26.86 235.56-28.11 235.7-29.37 235.78-30.2 235.87-31.03 235.94-31.48 236.02-31.93 236.1-32.15 236.19-32.37 236.32-32.43 236.45-32.5 236.67-32.54L236.67-32.54Q237.77-32.76 238.8-32.95 239.82-33.13 240.85-33.33 241.87-33.52 242.94-33.78 244-34.03 245.15-34.38L245.15-34.38Q245.22-34.38 245.24-34.39 245.27-34.4 245.34-34.4L245.34-34.4Q245.63-34.4 245.63-34.2L245.63-34.2 245.63-34.16Q245.51-32.81 245.26-30.42 245-28.03 244.68-25L244.68-25 251.23-25Q251.42-25 251.6-24.87 251.79-24.73 251.79-24.41L251.79-24.41Q251.79-24.29 251.49-23.54 251.2-22.78 250.66-21.56L250.66-21.56 249.78-19.58Q249.61-19.21 249.43-19.04 249.25-18.87 248.69-18.82L248.69-18.82Z"
                                                                                        opacity="1"
                                                                                        transform="matrix(1,0,0,1,0,0)"
                                                                                        fill="#f8fafc"
                                                                                        class="undefined-text-0"
                                                                                        data-fill-palette-color="primary"
                                                                                        id="text-0"></path>
                                                                                </svg></g>
                                                                        </svg></g>
                                                                </svg></g>
                                                        </svg></g>
                                                </svg></g>
                                        </svg></g>
                                </svg></g>
                        </svg></g>
                    <defs></defs>
                </svg>
                <rect width="320" height="360" fill="none" stroke="none" visibility="hidden"></rect>
            </g>
        </svg></g>
</svg>